    <svg   xmlns="http://www.w3.org/2000/svg"
                    width="20"
                    height="20"
                    viewBox="0 0 20 20"
                    fill="none"
                  >
                    <g clip-path="url(#clip0_2130_5116)">
                      <path
                        fill-rule="evenodd"
                        clip-rule="evenodd"
                        d="M0.430017 5.95247C1.10668 2.67914 3.18835 0.856636 6.43585 0.305803C8.83585 -0.101697 11.2375 -0.106697 13.6334 0.317469C16.9767 0.908302 18.9867 2.83747 19.6267 6.15997C20.1217 8.7283 20.1292 11.3233 19.6192 13.8883C18.935 17.1383 16.7992 19.1458 13.5642 19.6941C11.1642 20.1016 8.76252 20.1066 6.36668 19.6825C3.02335 19.0916 1.00418 17.0658 0.364184 13.7433C-0.155816 11.1583 -0.105816 8.54747 0.43085 5.95247H0.430017Z"
                        fill="url(#paint0_linear_2130_5116)"
                      ></path>
                      <path
                        d="M11.25 8.61506H15.4167M11.25 11.6476H15.4167M5 14.5833H15.4167"
                        stroke="white"
                        stroke-width="1.25"
                        stroke-linecap="round"
                        stroke-linejoin="round"
                      ></path>
                      <path
                        fill-rule="evenodd"
                        clip-rule="evenodd"
                        d="M8.98835 3.35412C8.94419 3.34078 8.89669 3.33328 8.84919 3.33328C8.58585 3.33328 8.37252 3.55162 8.37252 3.82078V7.80578C7.92919 7.43912 7.36419 7.21912 6.74919 7.21912C5.32252 7.21912 4.16669 8.40162 4.16669 9.85912C4.16669 11.3174 5.32252 12.4999 6.74919 12.4999C8.17502 12.4999 9.33169 11.3174 9.33169 9.85912C9.33169 9.79745 9.32919 9.73662 9.32585 9.67578L9.32669 4.64245C9.77169 4.92245 10.1875 5.24912 10.5684 5.61662C10.6634 5.70745 10.7559 5.79995 10.8467 5.89745C11.0284 6.09162 11.33 6.09745 11.52 5.91162C11.71 5.72578 11.7159 5.41745 11.5342 5.22328C11.4317 5.11412 11.3284 5.00912 11.2217 4.90662C10.5834 4.29162 9.85502 3.77745 9.06419 3.38495L8.98835 3.35412Z"
                        fill="white"
                      ></path>
                    </g>
                    <defs>
                      <linearGradient
                        id="paint0_linear_2130_5116"
                        x1="9.99993"
                        y1="-0.000244141"
                        x2="9.99993"
                        y2="20.0002"
                        gradientUnits="userSpaceOnUse"
                      >
                        <stop stop-color="#9FD465"></stop>
                        <stop
                          offset="1"
                          stop-color="#70B129"
                        ></stop>
                      </linearGradient>
                      <clipPath id="clip0_2130_5116">
                        <rect
                          width="20"
                          height="20"
                          fill="white"
                        ></rect>
                      </clipPath>
                    </defs>
                  </svg>