    <svg   xmlns="http://www.w3.org/2000/svg"
                width="24"
                height="24"
                viewBox="0 0 24 24"
              >
                <path
                  fill="white"
                  d="M9.5 9.325v5.35q0 .6.525.875t1.025-.05l4.15-2.65q.475-.275.475-.85t-.475-.85L11.05 8.5q-.5-.325-1.025-.05t-.525.875ZM12 22q-2.075 0-3.9-.788t-3.175-2.137q-1.35-1.35-2.137-3.175T2 12q0-2.075.788-3.9t2.137-3.175q1.35-1.35 3.175-2.137T12 2q2.075 0 3.9.788t3.175 2.137q1.35 1.35 2.138 3.175T22 12q0 2.075-.788 3.9t-2.137 3.175q-1.35 1.35-3.175 2.138T12 22Zm0-10Zm0 8q3.325 0 5.663-2.337T20 12q0-3.325-2.337-5.663T12 4Q8.675 4 6.337 6.337T4 12q0 3.325 2.337 5.663T12 20Z"
                />
              </svg>