    <svg   xmlns="http://www.w3.org/2000/svg"
                    width="20"
                    height="20"
                    viewBox="0 0 20 20"
                    fill="none"
                  >
                    <g clip-path="url(#clip0_2131_5195)">
                      <path
                        fill-rule="evenodd"
                        clip-rule="evenodd"
                        d="M0.429773 5.95247C1.10644 2.67914 3.18811 0.856636 6.43561 0.305803C8.83561 -0.101697 11.2373 -0.106697 13.6331 0.317469C16.9764 0.908302 18.9864 2.83747 19.6264 6.15997C20.1214 8.7283 20.1289 11.3233 19.6189 13.8883C18.9348 17.1383 16.7989 19.1458 13.5639 19.6941C11.1639 20.1016 8.76227 20.1066 6.36644 19.6825C3.02311 19.0916 1.00394 17.0658 0.363939 13.7433C-0.156061 11.1583 -0.106061 8.54747 0.430606 5.95247H0.429773Z"
                        fill="url(#paint0_linear_2131_5195)"
                      ></path>
                      <path
                        fill-rule="evenodd"
                        clip-rule="evenodd"
                        d="M16.9998 10C16.9998 13.866 13.8657 17 9.99976 17C6.13376 17 2.99976 13.866 2.99976 10C2.99976 6.13401 6.13376 3 9.99976 3C13.8657 3 16.9998 6.13401 16.9998 10ZM9.99975 5.25C10.414 5.25 10.7498 5.58579 10.7498 6V9.567L14.2718 11.6005C14.6306 11.8076 14.7535 12.2663 14.5464 12.625C14.3393 12.9837 13.8806 13.1066 13.5218 12.8995L9.63675 10.6565C9.61258 10.6431 9.58924 10.6284 9.5668 10.6125C9.47324 10.5465 9.39882 10.4621 9.34564 10.3672C9.29764 10.2819 9.26585 10.1862 9.25445 10.0844C9.25068 10.0514 9.2491 10.018 9.24975 9.98457V6C9.24975 5.58579 9.58554 5.25 9.99975 5.25Z"
                        fill="white"
                      ></path>
                    </g>
                    <defs>
                      <linearGradient
                        id="paint0_linear_2131_5195"
                        x1="9.99969"
                        y1="-0.000244141"
                        x2="9.99969"
                        y2="20.0002"
                        gradientUnits="userSpaceOnUse"
                      >
                        <stop stop-color="#FFD677"></stop>
                        <stop
                          offset="1"
                          stop-color="#F7AA45"
                        ></stop>
                      </linearGradient>
                      <clipPath id="clip0_2131_5195">
                        <rect
                          width="20"
                          height="20"
                          fill="white"
                          transform="translate(-0.000244141)"
                        ></rect>
                      </clipPath>
                    </defs>
                  </svg>