    <svg   xmlns="http://www.w3.org/2000/svg"
                    width="20"
                    height="20"
                    viewBox="0 0 20 20"
                    fill="none"
                  >
                    <path
                      fill-rule="evenodd"
                      clip-rule="evenodd"
                      d="M0.430334 5.95266C1.10691 2.67954 3.18858 0.856514 6.43569 0.305758C8.83604 -0.101252 11.2373 -0.106392 13.6335 0.31721C16.9769 0.908197 18.9867 2.83753 19.627 6.16013C20.1217 8.72802 20.1295 11.3232 19.6193 13.8886C18.9348 17.1391 16.7994 19.1455 13.5643 19.6942C11.164 20.1013 8.76274 20.1064 6.36648 19.6828C3.0231 19.0918 1.00434 17.0661 0.364051 13.7436C-0.155819 11.1588 -0.105778 8.54713 0.430334 5.95266Z"
                      fill="url(#paint0_linear_2129_5112)"
                    ></path>
                    <path
                      fill-rule="evenodd"
                      clip-rule="evenodd"
                      d="M3.20436 7.02377C3 7.42485 3 7.9499 3 9V13C3 14.0501 3 14.5751 3.20436 14.9762C3.38413 15.329 3.67096 15.6159 4.02377 15.7956C4.42485 16 4.9499 16 6 16H14C15.0501 16 15.5751 16 15.9762 15.7956C16.329 15.6159 16.6159 15.329 16.7956 14.9762C17 14.5751 17 14.0501 17 13V9C17 7.9499 17 7.42485 16.7956 7.02377C16.6159 6.67096 16.329 6.38413 15.9762 6.20436C15.5751 6 15.0501 6 14 6H6C4.9499 6 4.42485 6 4.02377 6.20436C3.67096 6.38413 3.38413 6.67096 3.20436 7.02377ZM10.652 7.37915L10.72 7.38363L10.7975 7.40033L10.8617 7.42339L10.8814 7.43245C11.5144 7.73961 12.0967 8.14198 12.6076 8.62357C12.6925 8.70332 12.7757 8.78572 12.8574 8.87091C13.0533 9.07514 13.0465 9.39948 12.8423 9.59534C12.6381 9.79121 12.3137 9.78443 12.1179 9.58021C12.0484 9.50781 11.9779 9.43797 11.9054 9.36987C11.6745 9.15219 11.4267 8.95363 11.1646 8.77614L11.1643 12.6949L11.1643 12.6966C11.1634 13.8631 10.2175 14.8084 9.05082 14.8084C7.88356 14.8084 6.93732 13.8622 6.93732 12.6949C6.93732 11.5277 7.88356 10.5814 9.05082 10.5814C9.44907 10.5814 9.8216 10.6916 10.1396 10.8831V7.89151C10.1396 7.60854 10.369 7.37915 10.652 7.37915Z"
                      fill="url(#paint1_linear_2129_5112)"
                    ></path>
                    <path
                      d="M5 5C5 4.44772 5.44772 4 6 4H14C14.5523 4 15 4.44772 15 5H5Z"
                      fill="white"
                      fill-opacity="0.9"
                    ></path>
                    <defs>
                      <linearGradient
                        id="paint0_linear_2129_5112"
                        x1="0"
                        y1="0"
                        x2="0"
                        y2="20"
                        gradientUnits="userSpaceOnUse"
                      >
                        <stop stop-color="#3CA2FF"></stop>
                        <stop
                          offset="1"
                          stop-color="#008FFF"
                        ></stop>
                      </linearGradient>
                      <linearGradient
                        id="paint1_linear_2129_5112"
                        x1="6.12791"
                        y1="10.6969"
                        x2="6.12791"
                        y2="15.625"
                        gradientUnits="userSpaceOnUse"
                      >
                        <stop stop-color="white"></stop>
                        <stop
                          offset="1"
                          stop-color="white"
                          stop-opacity="0.9"
                        ></stop>
                      </linearGradient>
                    </defs>
                  </svg>